<svg width="309" height="297" viewBox="0 0 309 297" fill="none" xmlns="http://www.w3.org/2000/svg">
<path d="M216.89 292.638L216.89 238.21H221.86C223.422 238.21 224.942 238.08 226.418 237.82L245.313 292.963L245.545 293.638H246.259H270.918H271.918V292.638V290.16V289.981L271.856 289.813L246.812 222.109C247.797 220.552 248.732 218.902 249.617 217.159C252.864 210.759 255.271 203.611 256.844 195.722C256.844 195.722 256.844 195.722 256.844 195.722L267.058 144.556L267.059 144.547L267.061 144.538L267.552 141.816L267.764 140.638H266.567H245.18H244.38L244.205 141.419L234.382 185.168L234.377 185.188L234.373 185.208C233.35 190.833 231.705 195.014 229.506 197.841L229.501 197.849L229.495 197.856C227.461 200.573 224.533 201.962 220.562 201.962H216.89L216.89 158.555L214.968 158.173C214.966 158.172 214.966 158.172 214.966 158.172L214.966 158.172L214.966 158.173L214.962 158.182C214.957 158.192 214.95 158.209 214.941 158.231C214.921 158.276 214.89 158.345 214.847 158.437C214.761 158.621 214.628 158.894 214.444 159.241C214.076 159.936 213.505 160.924 212.704 162.076C211.1 164.381 208.581 167.33 204.923 169.905C201.269 172.477 198.266 173.43 196.221 173.755C195.195 173.918 194.403 173.924 193.881 173.894C193.62 173.878 193.426 173.853 193.305 173.834C193.244 173.825 193.201 173.816 193.177 173.812C193.165 173.809 193.158 173.808 193.155 173.807C193.155 173.807 193.155 173.807 193.154 173.807C193.153 173.806 193.153 173.806 193.154 173.807L191.918 173.498V174.778V292.638V293.638H192.918H215.89H216.89V292.638Z" fill="white" stroke="#3C3C3C" stroke-width="2"/>
<path d="M99.8666 283.936L99.8748 283.941C108.034 289.09 117.898 291.638 129.418 291.638C140.846 291.638 150.662 289.033 158.821 283.774C167.059 278.526 173.306 271.212 177.56 261.864C181.808 252.529 183.918 241.779 183.918 229.638C183.918 217.497 181.808 206.748 177.56 197.412C173.306 188.065 167.059 180.751 158.822 175.504C150.663 170.244 140.846 167.638 129.418 167.638C117.894 167.638 108.027 170.244 99.8666 175.505C91.7259 180.754 85.5292 188.067 81.2762 197.412C77.0278 206.748 74.918 217.497 74.918 229.638C74.918 241.887 77.0273 252.692 81.2762 262.028C85.5292 271.374 91.7259 278.687 99.8666 283.936ZM152.381 211.11L152.385 211.12L152.389 211.131C154.38 216.463 155.387 222.627 155.387 229.638C155.387 236.649 154.38 242.87 152.386 248.316L152.383 248.325C150.494 253.638 147.633 257.731 143.824 260.657C140.047 263.559 135.268 265.042 129.418 265.042C123.571 265.042 118.74 263.56 114.862 260.654C111.053 257.727 108.145 253.633 106.16 248.32C104.262 242.872 103.304 236.65 103.304 229.638C103.304 222.624 104.263 216.457 106.16 211.12C108.147 205.695 111.056 201.548 114.862 198.623C118.74 195.717 123.571 194.235 129.418 194.235C135.268 194.235 140.047 195.718 143.824 198.62C147.628 201.542 150.49 205.686 152.381 211.11Z" fill="white" stroke="#3C3C3C" stroke-width="2"/>
<path d="M3.918 288.638V289.638H4.918H65.918H66.918V288.638V257.388V256.388H65.918H27.7997V166.638V165.638H26.7997H4.918H3.918V166.638V288.638Z" fill="white" stroke="#3C3C3C" stroke-width="2"/>
<path d="M232.74 129.38L232.606 130.5H233.733H255H255.889L255.993 129.617L259.313 101.391H283.815V294.638V295.638H284.815H305.962H306.962V294.638V36.9597V36.9456V36.9316V36.9175V36.9034V36.8893V36.8752V36.861V36.8469V36.8327V36.8185V36.8043V36.7901V36.7759V36.7617V36.7474V36.7331V36.7188V36.7045V36.6902V36.6759V36.6615V36.6472V36.6328V36.6184V36.604V36.5896V36.5751V36.5607V36.5462V36.5317V36.5172V36.5027V36.4882V36.4736V36.4591V36.4445V36.4299V36.4153V36.4007V36.3861V36.3714V36.3568V36.3421V36.3274V36.3127V36.2979V36.2832V36.2684V36.2537V36.2389V36.2241V36.2093V36.1944V36.1796V36.1647V36.1499V36.135V36.1201V36.1051V36.0902V36.0753V36.0603V36.0453V36.0303V36.0153V36.0003V35.9852V35.9702V35.9551V35.94V35.9249V35.9098V35.8947V35.8795V35.8644V35.8492V35.834V35.8188V35.8036V35.7883V35.7731V35.7578V35.7425V35.7272V35.7119V35.6966V35.6812V35.6659V35.6505V35.6351V35.6197V35.6043V35.5889V35.5734V35.558V35.5425V35.527V35.5115V35.496V35.4804V35.4649V35.4493V35.4337V35.4181V35.4025V35.3869V35.3712V35.3556V35.3399V35.3242V35.3085V35.2928V35.277V35.2613V35.2455V35.2297V35.2139V35.1981V35.1823V35.1665V35.1506V35.1347V35.1189V35.103V35.087V35.0711V35.0552V35.0392V35.0232V35.0072V34.9912V34.9752V34.9592V34.9431V34.9271V34.911V34.8949V34.8788V34.8626V34.8465V34.8303V34.8142V34.798V34.7818V34.7656V34.7493V34.7331V34.7168V34.7005V34.6842V34.6679V34.6516V34.6353V34.6189V34.6025V34.5862V34.5698V34.5534V34.5369V34.5205V34.504V34.4875V34.4711V34.4546V34.438V34.4215V34.405V34.3884V34.3718V34.3552V34.3386V34.322V34.3053V34.2887V34.272V34.2553V34.2386V34.2219V34.2052V34.1884V34.1717V34.1549V34.1381V34.1213V34.1045V34.0876V34.0708V34.0539V34.0371V34.0202V34.0032V33.9863V33.9694V33.9524V33.9354V33.9185V33.9015V33.8844V33.8674V33.8504V33.8333V33.8162V33.7991V33.782V33.7649V33.7478V33.7306V33.7134V33.6963V33.6791V33.6619V33.6446V33.6274V33.6101V33.5928V33.5756V33.5583V33.5409V33.5236V33.5063V33.4889V33.4715V33.4541V33.4367V33.4193V33.4018V33.3844V33.3669V33.3494V33.3319V33.3144V33.2969V33.2794V33.2618V33.2442V33.2266V33.209V33.1914V33.1738V33.1561V33.1385V33.1208V33.1031V33.0854V33.0676V33.0499V33.0321V33.0144V32.9966V32.9788V32.961V32.9431V32.9253V32.9074V32.8896V32.8717V32.8538V32.8358V32.8179V32.7999V32.782V32.764V32.746V32.728V32.71V32.6919V32.6739V32.6558V32.6377V32.6196V32.6015V32.5833V32.5652V32.547V32.5289V32.5107V32.4925V32.4742V32.456V32.4377V32.4195V32.4012V32.3829V32.3646V32.3463V32.3279V32.3095V32.2912V32.2728V32.2544V32.236V32.2175V32.1991V32.1806V32.1621V32.1436V32.1251V32.1066V32.0881V32.0695V32.0509V32.0324V32.0138V31.9951V31.9765V31.9579V31.9392V31.9205V31.9018V31.8831V31.8644V31.8457V31.8269V31.8082V31.7894V31.7706V31.7518V31.7329V31.7141V31.6952V31.6764V31.6575V31.6386V31.6197V31.6007V31.5818V31.5628V31.5438V31.5249V31.5058V31.4868V31.4678V31.4487V31.4297V31.4106V31.3915V31.3724V31.3532V31.3341V31.3149V31.2958V31.2766V31.2574V31.2382V31.2189V31.1997V31.1804V31.1611V31.1418V31.1225V31.1032V31.0839V31.0645V31.0451V31.0258V31.0064V30.9869V30.9675V30.9481V30.9286V30.9091V30.8896V30.8701V30.8506V30.8311V30.8115V30.792V30.7724V30.7528V30.7332V30.7136V30.6939V30.6743V30.6546V30.6349V30.6152V30.5955V30.5758V30.556V30.5362V30.5165V30.4967V30.4769V30.457V30.4372V30.4174V30.3975V30.3776V30.3577V30.3378V30.3179V30.2979V30.278V30.258V30.238V30.218V30.198V30.178V30.1579V30.1378V30.1178V30.0977V30.0776V30.0574V30.0373V30.0172V29.997V29.9768V29.9566V29.9364V29.9162V29.8959V29.8757V29.8554V29.8351V29.8148V29.7945V29.7741V29.7538V29.7334V29.713V29.6926V29.6722V29.6518V29.6314V29.6109V29.5904V29.57V29.5495V29.5289V29.5084V29.4879V29.4673V29.4467V29.4261V29.4055V29.3849V29.3643V29.3436V29.323V29.3023V29.2816V29.2609V29.2401V29.2194V29.1986V29.1779V29.1571V29.1363V29.1155V29.0946V29.0738V29.0529V29.032V29.0112V28.9902V28.9693V28.9484V28.9274V28.9065V28.8855V28.8645V28.8435V28.8224V28.8014V28.7803V28.7593V28.7382V28.7171V28.696V28.6748V28.6537V28.6325V28.6113V28.5901V28.5689V28.5477V28.5265V28.5052V28.4839V28.4627V28.4414V28.42V28.3987V28.3774V28.356V28.3346V28.3132V28.2918V28.2704V28.249V28.2275V28.2061V28.1846V28.1631V28.1416V28.1201V28.0985V28.077V28.0554V28.0338V28.0122V27.9906V27.969V27.9473V27.9256V27.904V27.8823V27.8606V27.8388V27.8171V27.8061C307.042 24.1002 307.121 20.4538 307.201 16.8671C307.359 13.2939 307.596 10.4608 307.907 8.35506L307.926 8.22721L307.912 8.09875L307.673 5.94244L307.603 5.30948L307 5.10535C303.75 4.00571 300.148 3.15477 296.197 2.54846C292.253 1.94312 288.578 1.63843 285.173 1.63843C279.284 1.63843 273.935 2.30562 269.132 3.65219C264.276 5.01398 260.029 7.43211 256.405 10.9006L256.405 10.9006L256.397 10.9086C252.841 14.3909 249.906 19.1989 247.561 25.2792C245.21 31.3759 243.524 39.1331 242.483 48.5248C242.483 48.5263 242.482 48.5279 242.482 48.5295L232.74 129.38ZM283.815 40.1941V73.8747H262.55L265.377 49.8363C265.377 49.8361 265.377 49.836 265.377 49.8358C265.929 45.2153 266.751 41.4704 267.827 38.5774C268.961 35.7389 270.554 33.7103 272.573 32.4094L272.588 32.3994L272.603 32.3888C274.613 30.9853 277.378 30.2329 280.992 30.2329C281.961 30.2329 282.987 30.3059 284.068 30.4537C284.064 30.4994 284.061 30.5451 284.057 30.5909L284.056 30.603L284.055 30.6151C283.895 33.5119 283.815 36.7052 283.815 40.1941Z" fill="white" stroke="#3C3C3C" stroke-width="2"/>
<path d="M158.926 149.96L158.905 150.122L158.937 150.282L159.432 152.817L159.539 153.36L160.056 153.558C163.412 154.846 166.853 155.847 170.378 156.562C173.912 157.279 177.449 157.638 180.988 157.638C187.177 157.638 192.728 156.926 197.63 155.485L197.64 155.482L197.65 155.479C202.684 153.879 207.003 151.184 210.591 147.398L210.596 147.392C214.27 143.461 217.223 138.186 219.486 131.616C221.835 124.894 223.457 116.428 224.371 106.241C224.371 106.24 224.371 106.24 224.371 106.239L233.914 2.73023L234.014 1.63843H232.918H210.981H210.067L209.985 2.54853L201.062 101.408C201.062 101.409 201.062 101.41 201.061 101.41C200.57 106.574 199.754 110.86 198.628 114.288C197.517 117.67 195.877 120.162 193.752 121.843L193.745 121.849L193.739 121.854C191.736 123.498 188.969 124.374 185.325 124.374C184.732 124.374 184.151 124.354 183.583 124.316C183.586 124.282 183.59 124.248 183.593 124.213C184.011 120.65 184.218 116.741 184.218 112.488V2.63843V1.63843H183.218H161.157H160.157V2.63843V116.29C160.157 119.098 160.116 122.682 160.034 127.045C159.951 131.404 159.827 135.693 159.662 139.911C159.498 144.122 159.251 147.468 158.926 149.96Z" fill="white" stroke="#3C3C3C" stroke-width="2"/>
<path d="M87.918 152.638V153.638H88.918H99.918H100.918H111.168H112.168H149.918H150.918V152.638V125.994V124.994H149.918H112.168V78.6384H142.418H143.418V77.6384V53.3141V52.3141H142.418H112.168V37.2015H148.793H149.793V36.2015V2.63843V1.63843H148.793H112.168H111.168H100.918H99.918H88.918H87.918V2.63843V152.638Z" fill="white" stroke="#3C3C3C" stroke-width="2"/>
<path d="M35.1168 119.555H26.3062V35.7218H37.7581C45.7559 35.7218 51.3456 38.7688 54.7474 44.7966L54.7522 44.8051L54.7572 44.8134C58.3171 50.8441 60.1525 59.5274 60.1525 70.9718C60.1525 77.7284 59.653 84.0612 58.6571 89.9723C57.6626 95.875 56.1335 101.066 54.08 105.556C52.0377 110.021 49.4453 113.495 46.322 116.019C43.2491 118.364 39.5319 119.555 35.1168 119.555ZM13.9925 1.63843H2.918H1.918V2.63843V152.638V153.638H2.918H13.9925H14.9925H25.3062H26.3062H33.9848C43.1219 153.638 50.958 151.444 57.441 147.005L57.4471 147.001L57.4532 146.997C63.8867 142.45 69.1019 136.28 73.1075 128.517C77.1843 120.779 80.1474 111.934 82.0073 101.993C83.9488 92.0644 84.918 81.5844 84.918 70.5551C84.918 48.6558 81.0066 31.6943 73.0551 19.7955C65.1388 7.6836 53.3217 1.63843 37.7581 1.63843H26.3062H25.3062H14.9925H13.9925Z" fill="white" stroke="#3C3C3C" stroke-width="2"/>
</svg>
