<svg width="479" height="479" viewBox="0 0 479 479" fill="none" xmlns="http://www.w3.org/2000/svg">
<path d="M240.466 13.8869L464.613 240.98L238.033 465.613L13.8866 238.52L240.466 13.8869Z" fill="#5316CD"/>
<path d="M240.466 13.8869L464.613 240.98L238.033 465.613L13.8866 238.52L240.466 13.8869Z" fill="url(#paint0_linear_22_18)" fill-opacity="0.2"/>
<path d="M239.98 17.0039C286.837 142.922 333.925 193.414 460.979 240.007C349.996 296.844 300.848 344.857 237.976 461.006C182.384 346.403 134.594 297.266 16.977 238.003C143.008 172.772 194.727 125.949 239.98 17.0039Z" fill="url(#paint1_linear_22_18)"/>
<path d="M240.57 90.0105C271.497 174.716 302.892 208.799 387.973 240.597C313.25 278.284 280.065 310.306 237.387 388C200.55 310.853 168.679 277.676 89.9833 237.414C174.841 194.155 209.746 162.943 240.57 90.0105Z" fill="#1F0548"/>
<path d="M237.028 166.033C253.721 206.936 269.715 223.046 311.95 237.055C276.059 256.874 260.399 273.159 240.928 311.977C221.481 274.883 205.27 259.225 166.006 240.955C206.757 218.223 223.274 202.303 237.028 166.033Z" fill="#030015"/>
<defs>
<linearGradient id="paint0_linear_22_18" x1="440.5" y1="250.5" x2="19.5" y2="160" gradientUnits="userSpaceOnUse">
<stop offset="0.49" stop-color="#5316CD"/>
<stop offset="1" stop-color="white"/>
</linearGradient>
<linearGradient id="paint1_linear_22_18" x1="400" y1="402" x2="-18" y2="129" gradientUnits="userSpaceOnUse">
<stop stop-color="#2A037E"/>
<stop offset="0.42" stop-color="#320496"/>
<stop offset="1" stop-color="#4B06E4"/>
</linearGradient>
</defs>
</svg>
