<svg width="140" height="93" viewBox="0 0 140 93" fill="none" xmlns="http://www.w3.org/2000/svg">
<g filter="url(#filter0_d_18_10)">
<path d="M90.5441 64.3307H83.7859V55.6869H90.0161C91.7408 55.6869 93.0608 55.3078 93.9759 54.5496C94.9263 53.7914 95.6127 52.6919 96.0351 51.2513L100.031 40.21H108.732L108.532 40.897L104.377 53.8103C103.744 55.7817 102.776 57.5635 101.473 59.1558C100.171 60.7481 98.6046 62.0181 96.7742 62.9659C94.9439 63.8757 92.8672 64.3307 90.5441 64.3307ZM78.7701 78.3199V48.574C78.7701 48.574 80.8173 48.8913 83.8881 47.5504C86.9589 46.2094 88.1153 44.4795 88.1153 44.4795L88.1153 78.3199H78.7701ZM99.4141 59.0989L110.502 77.6944V78.3199H100.47L91.864 62.7384L99.4141 59.0989Z" fill="#5913E6"/>
<path d="M89.1153 78.3199L89.1153 65.3307H90.5441C91.0785 65.3307 91.6024 65.3079 92.1155 65.262L99.5947 78.8034L99.88 79.3199H100.47H110.502H111.502V78.3199V77.6944V77.4189L111.361 77.1822L101.499 60.6421C101.757 60.368 102.006 60.0836 102.247 59.7889C103.629 58.0991 104.657 56.2063 105.329 54.1166C105.329 54.1165 105.329 54.1164 105.329 54.1163L109.484 41.2033L109.489 41.1897L109.493 41.1759L109.692 40.4889L110.064 39.21H108.732H100.031H99.3297L99.091 39.8696L95.0947 50.911L95.0842 50.9402L95.0754 50.97C94.6972 52.2601 94.1075 53.1654 93.3523 53.7679L93.3451 53.7737L93.3379 53.7796C92.6678 54.3348 91.6103 54.6869 90.0161 54.6869H89.1153L89.1153 44.4795L89.1153 41.1843L87.2872 43.9189C87.2869 43.9194 87.2865 43.92 87.286 43.9207C87.2822 43.926 87.2739 43.9375 87.261 43.9547C87.2352 43.989 87.1907 44.0459 87.1262 44.1214C86.9972 44.2724 86.7882 44.4978 86.4877 44.7657C85.8876 45.3008 84.9193 46.0089 83.4879 46.6339C82.0553 47.2595 80.8786 47.491 80.0794 47.5698C79.6792 47.6093 79.3725 47.6105 79.1746 47.6033C79.0756 47.5996 79.0039 47.5939 78.9613 47.5897C78.9401 47.5876 78.9261 47.5859 78.9197 47.5851C78.9188 47.585 78.9181 47.5849 78.9175 47.5849L77.7701 47.407V48.574V78.3199V79.3199H78.7701H88.1153H89.1153V78.3199Z" stroke="white" stroke-width="2"/>
</g>
<g filter="url(#filter1_d_18_10)">
<path d="M31.6844 62.3926C31.6844 59.3658 32.524 56.6967 34.203 54.3854C35.882 52.074 38.3225 50.2717 41.5244 48.9785C44.7263 47.6852 48.6115 47.0386 53.1801 47.0386C57.7096 47.0386 61.5753 47.6852 64.7772 48.9785C68.0181 50.2717 70.4781 52.074 72.1571 54.3854C73.8362 56.6967 74.6757 59.3658 74.6757 62.3926C74.6757 65.4194 73.8362 68.0884 72.1571 70.3998C70.4781 72.7111 68.0181 74.5135 64.7772 75.8067C61.5753 77.1 57.7096 77.7466 53.1801 77.7466C48.6115 77.7466 44.7263 77.1137 41.5244 75.848C38.3225 74.5547 35.882 72.7524 34.203 70.4411C32.524 68.1297 31.6844 65.4469 31.6844 62.3926ZM42.2858 62.3926C42.2858 64.1811 42.6763 65.7771 43.4572 67.1804C44.2772 68.5562 45.4877 69.6293 47.0887 70.3998C48.7287 71.1702 50.7591 71.5555 53.1801 71.5555C55.601 71.5555 57.612 71.1702 59.2129 70.3998C60.8138 69.6293 62.0048 68.5562 62.7857 67.1804C63.6057 65.7771 64.0157 64.1811 64.0157 62.3926C64.0157 60.604 63.6057 59.0219 62.7857 57.6461C62.0048 56.2427 60.8138 55.1558 59.2129 54.3854C57.612 53.6149 55.601 53.2297 53.1801 53.2297C50.7591 53.2297 48.7287 53.6149 47.0887 54.3854C45.4877 55.1558 44.2772 56.2427 43.4572 57.6461C42.6763 59.0219 42.2858 60.604 42.2858 62.3926Z" fill="#5913E6"/>
<path d="M41.1499 76.7752L41.1499 76.7752L41.1568 76.778C44.5071 78.1024 48.5245 78.7466 53.1801 78.7466C57.7991 78.7466 61.7985 78.0879 65.1497 76.7347C68.5262 75.3871 71.1542 73.4819 72.9662 70.9875C74.7769 68.4948 75.6757 65.6172 75.6757 62.3926C75.6757 59.168 74.7769 56.2903 72.9662 53.7977C71.1541 51.3032 68.5261 49.3981 65.1496 48.0504C61.7984 46.6972 57.799 46.0386 53.1801 46.0386C48.5224 46.0386 44.5024 46.6971 41.1499 48.0512C37.8107 49.4 35.2042 51.3057 33.3939 53.7977C31.5832 56.2903 30.6844 59.168 30.6844 62.3926C30.6844 65.6426 31.582 68.5345 33.3939 71.0288C35.2042 73.5208 37.8107 75.4265 41.1499 76.7752ZM61.9223 66.6759L61.9223 66.6758L61.9161 66.6868C61.2477 67.8642 60.2202 68.8052 58.7793 69.4987C57.3534 70.1849 55.5024 70.5555 53.1801 70.5555C50.8613 70.5555 48.9876 70.186 47.5181 69.4967C46.0813 68.8043 45.0317 67.863 44.3238 66.6811C43.6395 65.4459 43.2858 64.025 43.2858 62.3926C43.2858 60.7566 43.641 59.3505 44.3238 58.1452C45.0332 56.9337 46.0835 55.9798 47.5181 55.2885C48.9876 54.5991 50.8613 54.2297 53.1801 54.2297C55.5024 54.2297 57.3534 54.6003 58.7793 55.2865C60.2149 55.9774 61.242 56.9285 61.9119 58.1323L61.9191 58.1453L61.9267 58.158C62.644 59.3615 63.0157 60.7627 63.0157 62.3926C63.0157 64.0221 62.6441 65.4407 61.9223 66.6759Z" stroke="white" stroke-width="2"/>
</g>
<g filter="url(#filter2_d_18_10)">
<path d="M2.86805 77.2961L2.86805 46.5266H11.7362V69.4144H27.59V77.2961H2.86805Z" fill="#5913E6"/>
<path d="M1.86805 77.2961V78.2961H2.86805H27.59H28.59V77.2961V69.4144V68.4144H27.59H12.7362V46.5266V45.5266H11.7362H2.86805H1.86805V46.5266V77.2961Z" stroke="white" stroke-width="2"/>
</g>
<g filter="url(#filter3_d_18_10)">
<path d="M95.3156 36.393L99.2022 14.0942C99.6233 11.6376 100.303 9.62189 101.243 8.04712C102.182 6.47235 103.348 5.24403 104.741 4.36216C106.166 3.48029 107.834 2.86612 109.745 2.51968C111.656 2.17323 113.793 2 116.158 2C117.518 2 118.992 2.07874 120.579 2.23622C122.166 2.39369 123.607 2.61416 124.903 2.89762L125 3.46454C124.87 4.03146 124.773 4.78734 124.708 5.73221C124.676 6.67707 124.644 7.63768 124.611 8.61404C124.611 9.5904 124.611 10.3935 124.611 11.0234V78.7701H116.012V11.8738C116.012 10.9604 116.044 10.1258 116.109 9.36993C116.206 8.58254 116.32 7.8739 116.449 7.24399L117.567 9.27544C117.21 9.18096 116.725 9.11797 116.109 9.08647C115.526 9.02348 114.976 8.99198 114.457 8.99198C112.935 8.99198 111.721 9.1967 110.814 9.60614C109.907 9.98409 109.21 10.5668 108.725 11.3541C108.271 12.1415 107.931 13.1494 107.704 14.3777L103.963 36.393H95.3156ZM101.534 27.7003V20.9917H119.996V27.7003H101.534Z" fill="#5913E6"/>
<path d="M94.3304 36.2213L94.1262 37.393H95.3156H103.963H104.808L104.949 36.5605L106.285 28.7003H115.012V78.7701V79.7701H116.012H124.611H125.611V78.7701V11.0234V11.0197V11.016V11.0123V11.0086V11.0049V11.0012V10.9975V10.9938V10.9901V10.9863V10.9826V10.9789V10.9751V10.9714V10.9676V10.9639V10.9601V10.9564V10.9526V10.9488V10.9451V10.9413V10.9375V10.9337V10.9299V10.9261V10.9223V10.9185V10.9147V10.9109V10.9071V10.9033V10.8995V10.8957V10.8918V10.888V10.8842V10.8803V10.8765V10.8726V10.8688V10.8649V10.8611V10.8572V10.8533V10.8495V10.8456V10.8417V10.8378V10.8339V10.83V10.8262V10.8223V10.8184V10.8144V10.8105V10.8066V10.8027V10.7988V10.7948V10.7909V10.787V10.783V10.7791V10.7752V10.7712V10.7673V10.7633V10.7593V10.7554V10.7514V10.7474V10.7434V10.7395V10.7355V10.7315V10.7275V10.7235V10.7195V10.7155V10.7115V10.7075V10.7034V10.6994V10.6954V10.6914V10.6873V10.6833V10.6792V10.6752V10.6712V10.6671V10.663V10.659V10.6549V10.6508V10.6468V10.6427V10.6386V10.6345V10.6304V10.6263V10.6222V10.6181V10.614V10.6099V10.6058V10.6017V10.5976V10.5935V10.5893V10.5852V10.5811V10.5769V10.5728V10.5686V10.5645V10.5603V10.5562V10.552V10.5478V10.5436V10.5395V10.5353V10.5311V10.5269V10.5227V10.5185V10.5143V10.5101V10.5059V10.5017V10.4975V10.4933V10.489V10.4848V10.4806V10.4763V10.4721V10.4679V10.4636V10.4594V10.4551V10.4508V10.4466V10.4423V10.438V10.4338V10.4295V10.4252V10.4209V10.4166V10.4123V10.408V10.4037V10.3994V10.3951V10.3908V10.3865V10.3821V10.3778V10.3735V10.3692V10.3648V10.3605V10.3561V10.3518V10.3474V10.3431V10.3387V10.3343V10.33V10.3256V10.3212V10.3168V10.3124V10.308V10.3037V10.2993V10.2949V10.2904V10.286V10.2816V10.2772V10.2728V10.2684V10.2639V10.2595V10.255V10.2506V10.2462V10.2417V10.2373V10.2328V10.2283V10.2239V10.2194V10.2149V10.2104V10.206V10.2015V10.197V10.1925V10.188V10.1835V10.179V10.1745V10.17V10.1655V10.1609V10.1564V10.1519V10.1473V10.1428V10.1383V10.1337V10.1292V10.1246V10.1201V10.1155V10.1109V10.1064V10.1018V10.0972V10.0926V10.088V10.0835V10.0789V10.0743V10.0697V10.0651V10.0605V10.0558V10.0512V10.0466V10.042V10.0374V10.0327V10.0281V10.0234V10.0188V10.0141V10.0095V10.0048V10.0002V9.99552V9.99085V9.98618V9.9815V9.97682V9.97214V9.96745V9.96276V9.95806V9.95336V9.94866V9.94395V9.93924V9.93452V9.9298V9.92508V9.92035V9.91562V9.91088V9.90614V9.9014V9.89665V9.8919V9.88715V9.88239V9.87762V9.87286V9.86808V9.86331V9.85853V9.85375V9.84896V9.84417V9.83937V9.83457V9.82977V9.82496V9.82015V9.81534V9.81052V9.8057V9.80087V9.79604V9.7912V9.78637V9.78152V9.77668V9.77183V9.76697V9.76211V9.75725V9.75238V9.74751V9.74264V9.73776V9.73288V9.72799V9.7231V9.71821V9.71331V9.70841V9.7035V9.69859V9.69368V9.68876V9.68384V9.67891V9.67398V9.66905V9.66411V9.65917V9.65422V9.64927V9.64432V9.63936V9.6344V9.62943V9.62446V9.61949V9.61451V9.60953V9.60455V9.59956V9.59456V9.58957V9.58457V9.57956V9.57455V9.56954V9.56452V9.5595V9.55448V9.54945V9.54441V9.53938V9.53434V9.52929V9.52424V9.51919V9.51413V9.50907V9.50401V9.49894V9.49387V9.48879V9.48371V9.47862V9.47354V9.46844V9.46335V9.45825V9.45314V9.44803V9.44292V9.43781V9.43269V9.42756V9.42243V9.4173V9.41217V9.40703V9.40188V9.39673V9.39158V9.38643V9.38127V9.3761V9.37093V9.36576V9.36059V9.35541V9.35022V9.34504V9.33984V9.33465V9.32945V9.32425V9.31904V9.31383V9.30861V9.30339V9.29817V9.29294V9.28771V9.28248V9.27724V9.27199V9.26675V9.2615V9.25624V9.25098V9.24572V9.24045V9.23518V9.22991V9.22463V9.21934V9.21406V9.20877V9.20347V9.19817V9.19287V9.18756V9.18225V9.17694V9.17162V9.1663V9.16097V9.15564V9.15031V9.14497V9.13963V9.13428V9.12893V9.12358V9.11822V9.11286V9.10749V9.10212V9.09675V9.09137V9.08599V9.0806V9.07521V9.06982V9.06442V9.05902V9.05361V9.0482V9.04279V9.03737V9.03195V9.02653V9.0211V9.01566V9.01023V9.00478V8.99934V8.99389V8.98844V8.98298V8.97752V8.97205V8.96658V8.96111V8.95563V8.95015V8.94467V8.93918V8.93369V8.92819V8.92269V8.91718V8.91167V8.90616V8.90065V8.89513V8.8896V8.88407V8.87854V8.873V8.86746V8.86192V8.85637V8.85082V8.84526V8.8397V8.83414V8.82857V8.823V8.81742V8.81184V8.80626V8.80067V8.79508V8.78948V8.78388V8.77828V8.77267V8.76706V8.76144V8.75582V8.7502V8.74457V8.73894V8.7333V8.72766V8.72202V8.71637V8.71072V8.70507V8.69941V8.69374V8.68808V8.6824V8.67673V8.67105V8.66537V8.65968V8.65399V8.64829V8.64259V8.63689V8.63118V8.63064C125.643 7.66626 125.675 6.71728 125.707 5.78369C125.77 4.87121 125.863 4.17893 125.975 3.68732L126.019 3.49254L125.986 3.29561L125.888 2.72869L125.775 2.06471L125.117 1.92073C123.776 1.62751 122.296 1.40167 120.678 1.2411C119.063 1.08091 117.556 1 116.158 1C113.746 1 111.547 1.17659 109.566 1.53572C107.552 1.90101 105.762 2.5544 104.215 3.5118L104.214 3.51176L104.206 3.51729C102.666 4.49215 101.394 5.84069 100.384 7.53487C99.3636 9.24547 98.6517 11.3874 98.2168 13.9239C98.2168 13.9244 98.2167 13.9248 98.2166 13.9253L94.3304 36.2213ZM115.012 11.8738V19.9917H107.765L108.689 14.5524C108.901 13.408 109.208 12.5236 109.583 11.8666C109.952 11.2751 110.477 10.8297 111.198 10.5292L111.212 10.5236L111.225 10.5176C111.953 10.1891 113.009 9.99198 114.457 9.99198C114.653 9.99198 114.854 9.99684 115.062 10.0066C115.028 10.5927 115.012 11.2153 115.012 11.8738Z" stroke="white" stroke-width="2"/>
</g>
<g filter="url(#filter4_d_18_10)">
<path d="M65.4633 42.3136C65.5977 41.6733 65.6984 40.8196 65.7656 39.7525C65.8328 38.6854 65.8832 37.6004 65.9168 36.4977C65.9504 35.395 65.9672 34.488 65.9672 33.7766V5.0708H74.9381V32.8161C74.9381 33.8833 74.8541 34.8615 74.6861 35.7507C74.5517 36.6045 74.4341 37.2625 74.3333 37.7249L73.3253 35.8041C73.6613 35.8752 74.0309 35.9464 74.4341 36.0175C74.8709 36.0531 75.3245 36.0709 75.7948 36.0709C77.3404 36.0709 78.5667 35.8397 79.4739 35.3773C80.4147 34.9148 81.1202 34.239 81.5906 33.3497C82.061 32.4604 82.397 31.3577 82.5986 30.0416L86.2272 5.0708H95.1477L91.267 31.2155C90.8975 33.7766 90.2423 35.893 89.3015 37.5649C88.3944 39.2011 87.2184 40.4995 85.7737 41.4599C84.3625 42.3847 82.6658 43.0428 80.6835 43.4341C78.7347 43.7898 76.5172 43.9676 74.0309 43.9676C72.6198 43.9676 71.2086 43.8787 69.7975 43.7009C68.3863 43.523 67.0088 43.274 65.6648 42.9539L65.4633 42.3136Z" fill="#5913E6"/>
<path d="M64.4846 42.1082L64.4308 42.3643L64.5094 42.6139L64.711 43.2542L64.8813 43.7952L65.4331 43.9267C66.8133 44.2554 68.2265 44.5108 69.6724 44.693C71.1247 44.876 72.5776 44.9676 74.0309 44.9676C76.563 44.9676 78.8423 44.7867 80.863 44.4178L80.8701 44.4165L80.8771 44.4151C82.9614 44.0037 84.7839 43.3042 86.3218 42.2963L86.3273 42.2927C87.9147 41.2374 89.1962 39.8163 90.1745 38.0527C91.1918 36.2438 91.8752 34.0013 92.2565 31.3601C92.2566 31.3595 92.2567 31.3589 92.2568 31.3583L96.1369 5.21762L96.3071 4.0708H95.1477H86.2272H85.3621L85.2376 4.927L81.6095 29.894C81.4197 31.1315 81.1105 32.1186 80.7067 32.8821C80.3392 33.5768 79.7928 34.1062 79.0328 34.4798L79.0262 34.483L79.0198 34.4863C78.3089 34.8487 77.2617 35.0699 75.8043 35.0709C75.8941 34.3588 75.9381 33.6068 75.9381 32.8161V5.0708V4.0708H74.9381H65.9672H64.9672V5.0708V33.7766C64.9672 34.4739 64.9507 35.3699 64.9173 36.4673C64.884 37.5595 64.8341 38.6336 64.7676 39.6896C64.7018 40.7348 64.6049 41.5349 64.4846 42.1082Z" stroke="white" stroke-width="2"/>
</g>
<g filter="url(#filter5_d_18_10)">
<path d="M36.8024 42.944V5.0708H45.7631V42.944H36.8024ZM41.6352 42.944V36.2166H61.3689V42.944H41.6352ZM41.6352 24.0074V17.8658H58.3484V24.0074H41.6352ZM41.6352 13.5451V5.0708H60.9158V13.5451H41.6352Z" fill="#5913E6"/>
<path d="M35.8024 42.944V43.944H36.8024H40.6352H41.6352H45.7631H46.7631H61.3689H62.3689V42.944V36.2166V35.2166H61.3689H46.7631V25.0074H58.3484H59.3484V24.0074V17.8658V16.8658H58.3484H46.7631V14.5451H60.9158H61.9158V13.5451V5.0708V4.0708H60.9158H46.7631H45.7631H41.6352H40.6352H36.8024H35.8024V5.0708V42.944Z" stroke="white" stroke-width="2"/>
</g>
<g filter="url(#filter6_d_18_10)">
<path d="M6.88277 42.944V34.8434H15.0207C16.8857 34.8434 18.4793 34.5278 19.8018 33.8965C21.1242 33.2303 22.2092 32.3185 23.0569 31.1613C23.9046 30.004 24.5319 28.6714 24.9388 27.1635C25.3457 25.6556 25.5492 24.0425 25.5492 22.3242C25.5492 19.4135 24.8032 17.1692 23.3112 15.5911C21.8532 13.978 19.4457 13.1715 16.0888 13.1715H6.88277V5.0708H16.0888C22.2601 5.0708 26.9055 6.56118 30.025 9.54195C33.1785 12.4876 34.7552 16.7133 34.7552 22.219C34.7552 24.9893 34.3653 27.6194 33.5854 30.1092C32.8394 32.599 31.6526 34.8083 30.025 36.737C28.4314 38.6658 26.363 40.1912 23.8199 41.3134C21.2768 42.4005 18.1911 42.944 14.563 42.944H6.88277ZM2 42.944V5.0708H11.0535V42.944H2Z" fill="#5913E6"/>
<path d="M15.0207 33.8434H12.0535V14.1715H16.0888C19.3156 14.1715 21.3835 14.9497 22.5694 16.2617L22.5769 16.27L22.5846 16.2781C23.8482 17.6147 24.5492 19.5802 24.5492 22.3242C24.5492 23.9632 24.3552 25.488 23.9734 26.903C23.5957 28.3025 23.0189 29.521 22.2502 30.5703C21.501 31.5931 20.543 32.4016 19.3614 32.9986C18.2066 33.5477 16.7711 33.8434 15.0207 33.8434ZM5.88277 4.0708H2H1V5.0708V42.944V43.944H2H5.88277H6.88277H11.0535H12.0535H14.563C18.2861 43.944 21.5134 43.3869 24.2129 42.2329L24.213 42.233L24.2236 42.2283C26.8913 41.0511 29.0898 39.4375 30.7927 37.3779C32.5083 35.3438 33.7578 33.0152 34.5415 30.4022C35.3523 27.8116 35.7552 25.0823 35.7552 22.219C35.7552 16.5196 34.1174 11.9987 30.7118 8.81504C27.3393 5.5951 22.4042 4.0708 16.0888 4.0708H12.0535H11.0535H6.88277H5.88277Z" stroke="white" stroke-width="2"/>
</g>
<defs>
<filter id="filter0_d_18_10" x="76.7701" y="37.8892" width="47.7316" height="54.4307" filterUnits="userSpaceOnUse" color-interpolation-filters="sRGB">
<feFlood flood-opacity="0" result="BackgroundImageFix"/>
<feColorMatrix in="SourceAlpha" type="matrix" values="0 0 0 0 0 0 0 0 0 0 0 0 0 0 0 0 0 0 127 0" result="hardAlpha"/>
<feOffset dx="8" dy="8"/>
<feGaussianBlur stdDeviation="2"/>
<feComposite in2="hardAlpha" operator="out"/>
<feColorMatrix type="matrix" values="0 0 0 0 0 0 0 0 0 0 0 0 0 0 0 0 0 0 0.25 0"/>
<feBlend mode="normal" in2="BackgroundImageFix" result="effect1_dropShadow_18_10"/>
<feBlend mode="normal" in="SourceGraphic" in2="effect1_dropShadow_18_10" result="shape"/>
</filter>
<filter id="filter1_d_18_10" x="29.6844" y="45.0386" width="58.9912" height="46.708" filterUnits="userSpaceOnUse" color-interpolation-filters="sRGB">
<feFlood flood-opacity="0" result="BackgroundImageFix"/>
<feColorMatrix in="SourceAlpha" type="matrix" values="0 0 0 0 0 0 0 0 0 0 0 0 0 0 0 0 0 0 127 0" result="hardAlpha"/>
<feOffset dx="8" dy="8"/>
<feGaussianBlur stdDeviation="2"/>
<feComposite in2="hardAlpha" operator="out"/>
<feColorMatrix type="matrix" values="0 0 0 0 0 0 0 0 0 0 0 0 0 0 0 0 0 0 0.25 0"/>
<feBlend mode="normal" in2="BackgroundImageFix" result="effect1_dropShadow_18_10"/>
<feBlend mode="normal" in="SourceGraphic" in2="effect1_dropShadow_18_10" result="shape"/>
</filter>
<filter id="filter2_d_18_10" x="0.86805" y="44.5266" width="40.722" height="46.7695" filterUnits="userSpaceOnUse" color-interpolation-filters="sRGB">
<feFlood flood-opacity="0" result="BackgroundImageFix"/>
<feColorMatrix in="SourceAlpha" type="matrix" values="0 0 0 0 0 0 0 0 0 0 0 0 0 0 0 0 0 0 127 0" result="hardAlpha"/>
<feOffset dx="8" dy="8"/>
<feGaussianBlur stdDeviation="2"/>
<feComposite in2="hardAlpha" operator="out"/>
<feColorMatrix type="matrix" values="0 0 0 0 0 0 0 0 0 0 0 0 0 0 0 0 0 0 0.25 0"/>
<feBlend mode="normal" in2="BackgroundImageFix" result="effect1_dropShadow_18_10"/>
<feBlend mode="normal" in="SourceGraphic" in2="effect1_dropShadow_18_10" result="shape"/>
</filter>
<filter id="filter3_d_18_10" x="92.9368" y="0" width="46.1019" height="92.77" filterUnits="userSpaceOnUse" color-interpolation-filters="sRGB">
<feFlood flood-opacity="0" result="BackgroundImageFix"/>
<feColorMatrix in="SourceAlpha" type="matrix" values="0 0 0 0 0 0 0 0 0 0 0 0 0 0 0 0 0 0 127 0" result="hardAlpha"/>
<feOffset dx="8" dy="8"/>
<feGaussianBlur stdDeviation="2"/>
<feComposite in2="hardAlpha" operator="out"/>
<feColorMatrix type="matrix" values="0 0 0 0 0 0 0 0 0 0 0 0 0 0 0 0 0 0 0.25 0"/>
<feBlend mode="normal" in2="BackgroundImageFix" result="effect1_dropShadow_18_10"/>
<feBlend mode="normal" in="SourceGraphic" in2="effect1_dropShadow_18_10" result="shape"/>
</filter>
<filter id="filter4_d_18_10" x="63.3984" y="3.0708" width="46.0681" height="54.8967" filterUnits="userSpaceOnUse" color-interpolation-filters="sRGB">
<feFlood flood-opacity="0" result="BackgroundImageFix"/>
<feColorMatrix in="SourceAlpha" type="matrix" values="0 0 0 0 0 0 0 0 0 0 0 0 0 0 0 0 0 0 127 0" result="hardAlpha"/>
<feOffset dx="8" dy="8"/>
<feGaussianBlur stdDeviation="2"/>
<feComposite in2="hardAlpha" operator="out"/>
<feColorMatrix type="matrix" values="0 0 0 0 0 0 0 0 0 0 0 0 0 0 0 0 0 0 0.25 0"/>
<feBlend mode="normal" in2="BackgroundImageFix" result="effect1_dropShadow_18_10"/>
<feBlend mode="normal" in="SourceGraphic" in2="effect1_dropShadow_18_10" result="shape"/>
</filter>
<filter id="filter5_d_18_10" x="34.8024" y="3.0708" width="40.5664" height="53.8733" filterUnits="userSpaceOnUse" color-interpolation-filters="sRGB">
<feFlood flood-opacity="0" result="BackgroundImageFix"/>
<feColorMatrix in="SourceAlpha" type="matrix" values="0 0 0 0 0 0 0 0 0 0 0 0 0 0 0 0 0 0 127 0" result="hardAlpha"/>
<feOffset dx="8" dy="8"/>
<feGaussianBlur stdDeviation="2"/>
<feComposite in2="hardAlpha" operator="out"/>
<feColorMatrix type="matrix" values="0 0 0 0 0 0 0 0 0 0 0 0 0 0 0 0 0 0 0.25 0"/>
<feBlend mode="normal" in2="BackgroundImageFix" result="effect1_dropShadow_18_10"/>
<feBlend mode="normal" in="SourceGraphic" in2="effect1_dropShadow_18_10" result="shape"/>
</filter>
<filter id="filter6_d_18_10" x="0" y="3.0708" width="48.7552" height="53.8733" filterUnits="userSpaceOnUse" color-interpolation-filters="sRGB">
<feFlood flood-opacity="0" result="BackgroundImageFix"/>
<feColorMatrix in="SourceAlpha" type="matrix" values="0 0 0 0 0 0 0 0 0 0 0 0 0 0 0 0 0 0 127 0" result="hardAlpha"/>
<feOffset dx="8" dy="8"/>
<feGaussianBlur stdDeviation="2"/>
<feComposite in2="hardAlpha" operator="out"/>
<feColorMatrix type="matrix" values="0 0 0 0 0 0 0 0 0 0 0 0 0 0 0 0 0 0 0.25 0"/>
<feBlend mode="normal" in2="BackgroundImageFix" result="effect1_dropShadow_18_10"/>
<feBlend mode="normal" in="SourceGraphic" in2="effect1_dropShadow_18_10" result="shape"/>
</filter>
</defs>
</svg>
